<?xml version="1.0" standalone="no"?>
<!DOCTYPE svg PUBLIC "-//W3C//DTD SVG 20010904//EN"
 "http://www.w3.org/TR/2001/REC-SVG-20010904/DTD/svg10.dtd">
<svg version="1.0" xmlns="http://www.w3.org/2000/svg"
 width="512.000000pt" height="512.000000pt" viewBox="0 0 512.000000 512.000000"
 preserveAspectRatio="xMidYMid meet">
<metadata>
Created by potrace 1.14, written by Peter Selinger 2001-2017
</metadata>
<g transform="translate(0.000000,512.000000) scale(0.100000,-0.100000)"
fill="#000000" stroke="none">
<path d="M2340 4689 c-324 -37 -664 -160 -923 -333 -822 -549 -1166 -1580
-841 -2517 69 -201 185 -418 311 -587 74 -98 266 -296 363 -375 629 -507 1479
-609 2205 -263 515 245 918 702 1099 1247 260 779 64 1636 -504 2210 -410 414
-937 633 -1507 628 -70 -1 -162 -5 -203 -10z m-10 -1754 l0 -155 -525 0 -525
0 0 155 0 155 525 0 525 0 0 -155z m750 -380 l0 -535 -155 0 -155 0 0 528 c0
291 3 532 7 535 3 4 73 7 155 7 l148 0 0 -535z m750 0 l0 -536 -152 3 -153 3
-3 520 c-1 286 0 526 3 533 3 9 44 12 155 12 l150 0 0 -535z m-1500 -380 l0
-155 -525 0 -525 0 0 155 0 155 525 0 525 0 0 -155z"/>
</g>
</svg>
