<svg width="125" height="45" viewBox="0 0 125 45" fill="none" xmlns="http://www.w3.org/2000/svg">
<g clip-path="url(#clip0_2554_5379)">
<path d="M43.9399 22.5C43.9399 34.9265 34.1037 45 21.9699 45C9.83614 45 0 34.9265 0 22.5C0 10.0735 9.83614 0 21.9699 0C34.1037 0 43.9399 10.0735 43.9399 22.5Z" fill="#3E4251"/>
<path d="M27.3948 16.9133H24.1875V28.0867H27.3948V16.9133Z" fill="white"/>
<path d="M35.2249 16.9133H32.0176V28.0867H35.2249V16.9133Z" fill="white"/>
<path d="M19.5351 16.8472H8.625V20.1319H19.5351V16.8472Z" fill="white"/>
<path d="M19.5351 24.8651H8.625V28.1498H19.5351V24.8651Z" fill="white"/>
<path d="M54.9648 5.60168H60.8425V7.2816H56.6639V9.16286H60.3642V10.8428H56.6639V12.7481H61.0068V14.425H54.9648V5.60168Z" fill="#3E4251"/>
<path d="M70.0087 5.60168V14.425H68.3097V10.8398H64.4568V14.425H62.7578V5.60168H64.4568V9.16286H68.3097V5.60168H70.0087Z" fill="#3E4251"/>
<path d="M57.0117 18.3828C57.8158 18.3828 58.4379 18.5541 58.878 18.8937C59.3182 19.2333 59.5383 19.7832 59.5383 20.5436C59.5383 20.9192 59.4678 21.2618 59.327 21.5743C59.1861 21.8869 58.9778 22.1423 58.702 22.3407C58.4261 22.542 58.0799 22.6682 57.6661 22.7253L57.6074 22.4368C58.0359 22.4699 58.4291 22.5781 58.7841 22.7674C59.1392 22.9567 59.4238 23.2062 59.638 23.5217C59.8523 23.8373 59.9608 24.2069 59.9608 24.6306C59.9608 25.0153 59.8875 25.3489 59.7437 25.6314C59.5999 25.9139 59.4033 26.1513 59.1568 26.3376C58.9103 26.5269 58.6315 26.6652 58.3205 26.7583C58.0094 26.8515 57.6808 26.8966 57.3375 26.8966H55.1719V18.3828H57.0117ZM57.2817 22.3647C57.8745 22.3647 58.3029 22.2024 58.5641 21.8719C58.8252 21.5443 58.9573 21.1356 58.9573 20.6487C58.9573 20.0417 58.7841 19.6059 58.4349 19.3415C58.0887 19.077 57.6221 18.9448 57.0352 18.9448H55.747V22.3617H57.2817V22.3647ZM57.3169 26.3556C57.6925 26.3556 58.0359 26.2925 58.3469 26.1693C58.658 26.0461 58.9103 25.8568 59.0952 25.6013C59.283 25.3459 59.3769 25.0303 59.3769 24.6547C59.3769 24.24 59.2712 23.9064 59.06 23.6539C58.8487 23.4015 58.5846 23.2182 58.2647 23.104C57.9449 22.9898 57.6162 22.9297 57.2817 22.9297H55.747V26.3556H57.3169Z" fill="#3E4251"/>
<path d="M61.5547 22.6503C61.5547 22.0492 61.6633 21.4903 61.8833 20.9643C62.1005 20.4414 62.4057 19.9756 62.7959 19.5729C63.1862 19.1702 63.6381 18.8547 64.1487 18.6263C64.6593 18.3979 65.208 18.2837 65.7949 18.2837C66.3818 18.2837 66.9305 18.3979 67.447 18.6263C67.9634 18.8547 68.4153 19.1702 68.8056 19.5729C69.1959 19.9756 69.5011 20.4414 69.7241 20.9643C69.9471 21.4872 70.0586 22.0492 70.0586 22.6503C70.0586 23.2513 69.9471 23.8103 69.7241 24.3362C69.5011 24.8591 69.1959 25.3219 68.8056 25.7216C68.4153 26.1213 67.9634 26.4338 67.447 26.6562C66.9305 26.8816 66.3818 26.9928 65.7949 26.9928C65.208 26.9928 64.6622 26.8846 64.1487 26.6682C63.6381 26.4518 63.1862 26.1483 62.7959 25.7576C62.4057 25.367 62.1005 24.9072 61.8833 24.3783C61.6633 23.8493 61.5547 23.2753 61.5547 22.6503ZM62.1416 22.6623C62.1416 23.1822 62.2355 23.669 62.4233 24.1258C62.6111 24.5826 62.8722 24.9823 63.2068 25.3249C63.5413 25.6675 63.9316 25.938 64.3717 26.1333C64.8119 26.3286 65.2843 26.4278 65.7832 26.4278C66.2996 26.4278 66.7779 26.3286 67.224 26.1333C67.67 25.938 68.0603 25.6675 68.3948 25.3249C68.7293 24.9823 68.9934 24.5826 69.1842 24.1258C69.3749 23.669 69.4717 23.1792 69.4717 22.6503C69.4717 22.1304 69.3749 21.6405 69.1842 21.1807C68.9934 20.7209 68.7293 20.3182 68.3948 19.9696C68.0603 19.621 67.67 19.3475 67.224 19.1492C66.7779 18.9478 66.3026 18.8487 65.7949 18.8487C65.2785 18.8487 64.8001 18.9508 64.3541 19.1552C63.9081 19.3596 63.5207 19.636 63.1892 19.9876C62.8576 20.3393 62.5993 20.745 62.4174 21.2048C62.2355 21.6646 62.1416 22.1514 62.1416 22.6623Z" fill="#3E4251"/>
<path d="M72.7021 24.0176C72.7021 24.5134 72.8019 24.9402 73.0014 25.3008C73.2009 25.6614 73.4709 25.9379 73.8142 26.1332C74.1576 26.3286 74.5478 26.4278 74.9851 26.4278C75.4311 26.4278 75.8272 26.3286 76.1735 26.1332C76.5198 25.9379 76.7956 25.6584 76.9922 25.3008C77.1917 24.9402 77.2915 24.5134 77.2915 24.0176V18.3828H77.8549V24.0536C77.8549 24.6697 77.7287 25.1956 77.4734 25.6374C77.2181 26.0792 76.8748 26.4127 76.4435 26.6441C76.0092 26.8755 75.525 26.9927 74.9851 26.9927C74.4481 26.9927 73.961 26.8755 73.5267 26.6441C73.0924 26.4127 72.752 26.0761 72.5026 25.6374C72.2531 25.1986 72.127 24.6697 72.127 24.0536V18.3828H72.7021V24.0176Z" fill="#3E4251"/>
<path d="M79.7822 18.3828H85.2256V18.9478H82.7783V26.8966H82.2031V18.9478H79.7793V18.3828H79.7822Z" fill="#3E4251"/>
<path d="M87.207 18.3828H87.7822V26.8966H87.207V18.3828Z" fill="#3E4251"/>
<path d="M89.9004 22.6503C89.9004 22.0492 90.009 21.4903 90.229 20.9643C90.4462 20.4414 90.7514 19.9756 91.1416 19.5729C91.5319 19.1702 91.9838 18.8547 92.4944 18.6263C93.005 18.3979 93.5537 18.2837 94.1406 18.2837C94.7275 18.2837 95.2762 18.3979 95.7927 18.6263C96.3091 18.8547 96.761 19.1702 97.1513 19.5729C97.5416 19.9756 97.8468 20.4414 98.0698 20.9643C98.2928 21.4872 98.4043 22.0492 98.4043 22.6503C98.4043 23.2513 98.2928 23.8103 98.0698 24.3362C97.8468 24.8591 97.5416 25.3219 97.1513 25.7216C96.761 26.1213 96.3091 26.4338 95.7927 26.6562C95.2762 26.8816 94.7275 26.9928 94.1406 26.9928C93.5537 26.9928 93.0079 26.8846 92.4944 26.6682C91.9838 26.4518 91.5319 26.1483 91.1416 25.7576C90.7514 25.367 90.4462 24.9072 90.229 24.3783C90.009 23.8493 89.9004 23.2753 89.9004 22.6503ZM90.4843 22.6623C90.4843 23.1822 90.5782 23.669 90.766 24.1258C90.9538 24.5826 91.215 24.9823 91.5495 25.3249C91.8841 25.6675 92.2743 25.938 92.7145 26.1333C93.1547 26.3286 93.6271 26.4278 94.1259 26.4278C94.6424 26.4278 95.1207 26.3286 95.5667 26.1333C96.0128 25.938 96.403 25.6675 96.7376 25.3249C97.0721 24.9823 97.3362 24.5826 97.5269 24.1258C97.7177 23.669 97.8145 23.1792 97.8145 22.6503C97.8145 22.1304 97.7177 21.6435 97.5269 21.1867C97.3362 20.7299 97.0721 20.3302 96.7376 19.9816C96.403 19.633 96.0128 19.3596 95.5667 19.1612C95.1207 18.9599 94.6453 18.8607 94.1377 18.8607C93.6212 18.8607 93.1429 18.9629 92.6969 19.1672C92.2509 19.3716 91.8635 19.6481 91.5319 19.9997C91.2003 20.3513 90.9421 20.757 90.7602 21.2168C90.5782 21.6766 90.4843 22.1604 90.4843 22.6623ZM95.4963 26.3316H98.6332V26.8966H94.6864L95.4963 26.3316Z" fill="#3E4251"/>
<path d="M101.28 24.0176C101.28 24.5134 101.38 24.9402 101.58 25.3008C101.779 25.6614 102.049 25.9379 102.392 26.1332C102.736 26.3286 103.126 26.4278 103.563 26.4278C104.009 26.4278 104.405 26.3286 104.752 26.1332C105.098 25.9379 105.374 25.6584 105.57 25.3008C105.77 24.9402 105.87 24.5134 105.87 24.0176V18.3828H106.433V24.0536C106.433 24.6697 106.307 25.1956 106.052 25.6374C105.796 26.0792 105.453 26.4127 105.022 26.6441C104.587 26.8755 104.103 26.9927 103.563 26.9927C103.026 26.9927 102.539 26.8755 102.105 26.6441C101.67 26.4127 101.33 26.0761 101.081 25.6374C100.831 25.1986 100.705 24.6697 100.705 24.0536V18.3828H101.28V24.0176Z" fill="#3E4251"/>
<path d="M109.029 18.3828H114.159V18.9478H109.604V22.3287H113.701V22.8936H109.604V26.3346H114.323V26.8996H109.032V18.3828H109.029Z" fill="#3E4251"/>
<path d="M55.1758 30.8514H60.3051V31.4164H55.7509V34.7973H59.8474V35.3623H55.7509V38.8032H60.4695V39.3682H55.1787V30.8514H55.1758Z" fill="#3E4251"/>
<path d="M61.8359 39.3652L64.6471 34.8694L64.9523 35.3863L62.5402 39.3682H61.8359V39.3652ZM61.9533 30.8514H62.6664L68.0774 39.3652H67.3526L61.9533 30.8514ZM64.9141 34.6771L67.2441 30.8514H67.9219L65.2399 35.1429L64.9141 34.6771Z" fill="#3E4251"/>
<path d="M71.8341 30.8514C72.3506 30.8514 72.7996 30.9416 73.1869 31.1219C73.5743 31.3022 73.8736 31.5697 74.0878 31.9243C74.302 32.2789 74.4106 32.7267 74.4106 33.2616C74.4106 33.5802 74.3607 33.8897 74.2638 34.1902C74.167 34.4907 74.0085 34.7582 73.7943 34.9986C73.5801 35.239 73.3072 35.4314 72.9756 35.5756C72.644 35.7199 72.245 35.792 71.7755 35.792H70.4873V39.3652H69.9121V30.8514H71.8341ZM71.7755 35.23C72.1804 35.23 72.5179 35.1639 72.7878 35.0317C73.0578 34.8995 73.2691 34.7312 73.4187 34.5298C73.5713 34.3255 73.6799 34.1121 73.7474 33.8897C73.8149 33.6673 73.8472 33.457 73.8472 33.2646C73.8472 32.9942 73.8031 32.7447 73.718 32.5223C73.6329 32.3 73.5068 32.1046 73.3366 31.9423C73.1664 31.78 72.9639 31.6508 72.7233 31.5577C72.4827 31.4645 72.2039 31.4194 71.8928 31.4194H70.4873V35.233H71.7755V35.23Z" fill="#3E4251"/>
<path d="M76.4004 30.8514H81.5297V31.4164H76.9755V34.7973H81.072V35.3623H76.9755V38.8032H81.6941V39.3682H76.4033V30.8514H76.4004Z" fill="#3E4251"/>
<path d="M85.7785 30.8514C86.0895 30.8514 86.4005 30.8965 86.7087 30.9897C87.0168 31.0828 87.2985 31.2271 87.5508 31.4224C87.8032 31.6178 88.0086 31.8672 88.1641 32.1707C88.3197 32.4743 88.3989 32.8379 88.3989 33.2616C88.3989 33.5802 88.3519 33.8897 88.258 34.1902C88.1641 34.4907 88.0115 34.7582 87.8003 34.9986C87.589 35.239 87.3161 35.4314 86.9816 35.5756C86.647 35.7199 86.2333 35.792 85.7403 35.792H84.4521V39.3652H83.877V30.8514H85.7785ZM85.708 35.23C86.1218 35.23 86.4651 35.1699 86.738 35.0497C87.0109 34.9295 87.2251 34.7732 87.3806 34.5809C87.5362 34.3886 87.6477 34.1782 87.7152 33.9528C87.7827 33.7244 87.8149 33.502 87.8149 33.2887C87.8149 33.0332 87.7709 32.7928 87.6799 32.5704C87.589 32.345 87.4599 32.1497 87.2867 31.9754C87.1136 31.8041 86.9082 31.6689 86.6676 31.5667C86.424 31.4675 86.157 31.4164 85.8606 31.4164H84.455V35.23H85.708ZM86.9023 35.4915L89.2088 39.3652H88.5427L86.2245 35.5035L86.9023 35.4915Z" fill="#3E4251"/>
<path d="M91.293 30.8514H91.8681V39.3652H91.293V30.8514Z" fill="#3E4251"/>
<path d="M94.5137 30.8514H99.643V31.4164H95.0888V34.7973H99.1823V35.3623H95.0859V38.8032H99.8044V39.3682H94.5137V30.8514Z" fill="#3E4251"/>
<path d="M108.949 39.5696L102.393 32.0025L102.546 31.8822L102.558 39.3652H101.994V30.6711H102.029L108.585 38.2984L108.432 38.3464L108.421 30.8515H108.972V39.5696H108.949Z" fill="#3E4251"/>
<path d="M117.589 38.8032C117.41 38.9144 117.201 39.0226 116.969 39.1278C116.738 39.2329 116.476 39.3141 116.198 39.3742C115.916 39.4343 115.611 39.4643 115.285 39.4643C114.651 39.4643 114.079 39.3501 113.563 39.1217C113.046 38.8934 112.606 38.5838 112.239 38.1871C111.872 37.7904 111.591 37.3367 111.391 36.8198C111.192 36.3029 111.092 35.7559 111.092 35.1699C111.092 34.5478 111.197 33.9678 111.409 33.4299C111.62 32.895 111.916 32.4261 112.298 32.0265C112.679 31.6268 113.125 31.3142 113.633 31.0918C114.141 30.8694 114.689 30.7552 115.285 30.7552C115.722 30.7552 116.133 30.8154 116.515 30.9356C116.896 31.0558 117.245 31.212 117.556 31.4044L117.31 31.9423C117.037 31.768 116.729 31.6177 116.385 31.4975C116.042 31.3773 115.678 31.3172 115.297 31.3172C114.804 31.3172 114.34 31.4164 113.903 31.6117C113.466 31.8071 113.081 32.0805 112.75 32.4261C112.418 32.7717 112.16 33.1805 111.972 33.6433C111.784 34.1061 111.69 34.6079 111.69 35.1429C111.69 35.6537 111.776 36.1376 111.943 36.5944C112.11 37.0512 112.354 37.4509 112.668 37.7935C112.982 38.136 113.363 38.4065 113.809 38.6019C114.255 38.7972 114.751 38.8964 115.297 38.8964C115.702 38.8964 116.074 38.8393 116.415 38.7221C116.755 38.6079 117.057 38.4606 117.322 38.2833L117.589 38.8032Z" fill="#3E4251"/>
<path d="M119.709 30.8514H124.838V31.4164H120.281V34.7973H124.378V35.3623H120.281V38.8032H125V39.3682H119.709V30.8514Z" fill="#3E4251"/>
</g>
<defs>
<clipPath id="clip0_2554_5379">
<rect width="125" height="45" fill="white"/>
</clipPath>
</defs>
</svg>
